Coordinates
version=1
nRows=14
nColumns=40
inDegrees=yes

Units are S.I. units (second, meters, Newtons, ...)
If the header above contains a line with 'inDegrees', this indicates whether rotational values are in degrees (yes) or radians (no).

endheader
time	pelvis_tilt	pelvis_list	pelvis_rotation	pelvis_tx	pelvis_ty	pelvis_tz	hip_flexion_r	hip_adduction_r	hip_rotation_r	knee_angle_r	knee_angle_r_beta	ankle_angle_r	subtalar_angle_r	mtp_angle_r	hip_flexion_l	hip_adduction_l	hip_rotation_l	knee_angle_l	knee_angle_l_beta	ankle_angle_l	subtalar_angle_l	mtp_angle_l	lumbar_extension	lumbar_bending	lumbar_rotation	arm_flex_r	arm_add_r	arm_rot_r	elbow_flex_r	pro_sup_r	wrist_flex_r	wrist_dev_r	arm_flex_l	arm_add_l	arm_rot_l	elbow_flex_l	pro_sup_l	wrist_flex_l	wrist_dev_l
      1.52000000	     -0.77243695	      8.34804829	    -89.61079140	      0.27596723	      0.93603478	     -0.30003374	     27.01737650	     -3.25303761	     -5.12243232	     51.64724844	      0.90141453	      4.22834738	      0.00000000	      0.00000000	     13.64352163	      3.54106964	     -1.65364828	      7.13924107	      0.12460326	     -0.94637633	      0.00000000	      0.00000000	      2.85000868	     -1.55459839	     -4.46769229	      0.00000000	      0.00000000	      0.00000000	      0.00000000	      0.00000000	      0.00000000	      0.00000000	      0.00000000	      0.00000000	      0.00000000	      0.00000000	      0.00000000	      0.00000000	      0.00000000
      1.53000000	     -0.65713445	      8.50113515	    -89.57276276	      0.27666683	      0.93594078	     -0.29412652	     27.81792531	     -3.29288255	     -5.11722681	     49.98818956	      0.87245850	      4.42632853	      0.00000000	      0.00000000	     13.41652502	      3.72341694	     -1.69029646	      7.19200726	      0.12552421	     -0.69681796	      0.00000000	      0.00000000	      2.88711061	     -1.69239496	     -4.62733777	      0.00000000	      0.00000000	      0.00000000	      0.00000000	      0.00000000	      0.00000000	      0.00000000	      0.00000000	      0.00000000	      0.00000000	      0.00000000	      0.00000000	      0.00000000	      0.00000000
      1.54000000	     -0.95635453	      8.36118092	    -89.54489376	      0.27701863	      0.93648071	     -0.28790507	     28.03323440	     -2.75307072	     -5.10158169	     47.81978947	      0.83461277	      4.25878900	      0.00000000	      0.00000000	     12.65020145	      3.44507883	     -1.53214553	      6.83713739	      0.11933056	     -0.42187383	      0.00000000	      0.00000000	      2.62726141	     -1.34494736	     -4.68110844	      0.00000000	      0.00000000	      0.00000000	      0.00000000	      0.00000000	      0.00000000	      0.00000000	      0.00000000	      0.00000000	      0.00000000	      0.00000000	      0.00000000	      0.00000000	      0.00000000
      1.55000000	     -0.97554341	      8.46560302	    -89.52507789	      0.27751093	      0.93640211	     -0.28188661	     28.60124786	     -2.54022521	     -5.00248294	     45.79770124	      0.79932068	      4.20361935	      0.00000000	      0.00000000	     12.27545817	      3.47142572	     -1.48197247	      6.71003892	      0.11711227	     -0.06427351	      0.00000000	      0.00000000	      2.63289745	     -1.32568991	     -4.74997028	      0.00000000	      0.00000000	      0.00000000	      0.00000000	      0.00000000	      0.00000000	      0.00000000	      0.00000000	      0.00000000	      0.00000000	      0.00000000	      0.00000000	      0.00000000	      0.00000000
      1.56000000	     -0.70821786	      8.61062302	    -89.44896625	      0.27820672	      0.93600155	     -0.27599594	     29.25965000	     -2.73496803	     -5.01999246	     43.88356959	      0.76591278	      4.34188231	      0.00000000	      0.00000000	     12.09607614	      3.81658127	     -1.50274855	      6.86585000	      0.11983169	      0.11454078	      0.00000000	      0.00000000	      2.66897327	     -1.63197251	     -4.94461054	      0.00000000	      0.00000000	      0.00000000	      0.00000000	      0.00000000	      0.00000000	      0.00000000	      0.00000000	      0.00000000	      0.00000000	      0.00000000	      0.00000000	      0.00000000	      0.00000000
      1.57000000	     -1.04877515	      8.52077528	    -89.43325275	      0.27838203	      0.93627576	     -0.26977006	     29.33132344	     -2.05322608	     -4.87348494	     41.32305828	      0.72122342	      3.67417876	      0.00000000	      0.00000000	     11.40512277	      3.47880165	     -1.31785111	      6.55561300	      0.11441703	      0.54655456	      0.00000000	      0.00000000	      2.45875915	     -1.23853384	     -4.92877833	      0.00000000	      0.00000000	      0.00000000	      0.00000000	      0.00000000	      0.00000000	      0.00000000	      0.00000000	      0.00000000	      0.00000000	      0.00000000	      0.00000000	      0.00000000	      0.00000000
      1.58000000	     -1.05285436	      8.32146174	    -89.36873200	      0.27887039	      0.93644633	     -0.26350835	     29.33170207	     -1.84506392	     -4.83636160	     38.91555320	      0.67920453	      3.32938794	      0.00000000	      0.00000000	     10.66707030	      3.52013149	     -1.23371379	      6.38830456	      0.11149695	      0.77102385	      0.00000000	      0.00000000	      2.11457888	     -1.21736465	     -5.04682443	      0.00000000	      0.00000000	      0.00000000	      0.00000000	      0.00000000	      0.00000000	      0.00000000	      0.00000000	      0.00000000	      0.00000000	      0.00000000	      0.00000000	      0.00000000	      0.00000000
      1.59000000	     -1.02419414	      8.37673914	    -89.30702561	      0.27931877	      0.93613238	     -0.25737980	     29.62514145	     -1.65469983	     -4.74701334	     36.54099959	      0.63776075	      2.93842955	      0.00000000	      0.00000000	     10.27062621	      3.59436794	     -1.13409905	      6.33837866	      0.11062558	      1.10831237	      0.00000000	      0.00000000	      2.06506899	     -1.24000994	     -5.12438003	      0.00000000	      0.00000000	      0.00000000	      0.00000000	      0.00000000	      0.00000000	      0.00000000	      0.00000000	      0.00000000	      0.00000000	      0.00000000	      0.00000000	      0.00000000	      0.00000000
      1.60000000	     -0.96265056	      8.42321755	    -89.24666549	      0.27975155	      0.93574116	     -0.25119788	     29.88248127	     -1.49239576	     -4.64621700	     34.14787785	      0.59599290	      2.55696913	     -0.00000000	      0.00000000	      9.85884258	      3.70456327	     -1.02059506	      6.28714180	      0.10973132	      1.46801860	      0.00000000	     -0.00000000	      2.00800878	     -1.29818759	     -5.19004649	     -0.00000000	     -0.00000000	     -0.00000000	      0.00000000	      0.00000000	     -0.00000000	      0.00000000	      0.00000000	      0.00000000	      0.00000000	      0.00000000	      0.00000000	      0.00000000	      0.00000000
      1.61000000	     -0.87938368	      8.41296306	    -89.17698002	      0.28016965	      0.93535995	     -0.24494861	     30.03373411	     -1.34730132	     -4.54824678	     31.71583432	      0.55354573	      2.15496058	      0.00000000	      0.00000000	      9.38240664	      3.83182636	     -0.93607975	      6.23690663	      0.10885456	      1.79499814	     -0.00000000	      0.00000000	      1.88193493	     -1.38175670	     -5.29307649	     -0.00000000	      0.00000000	      0.00000000	      0.00000000	      0.00000000	     -0.00000000	     -0.00000000	      0.00000000	      0.00000000	     -0.00000000	      0.00000000	      0.00000000	     -0.00000000	     -0.00000000
      1.62000000	     -0.80045655	      8.33658777	    -89.08370045	      0.28062999	      0.93501185	     -0.23857682	     30.06414481	     -1.21840308	     -4.53206547	     29.25139792	      0.51053320	      1.73352323	      0.00000000	      0.00000000	      8.82002911	      3.95758083	     -0.83138307	      6.17425896	      0.10776115	      2.09524026	      0.00000000	      0.00000000	      1.68886986	     -1.44515672	     -5.41490972	      0.00000000	      0.00000000	      0.00000000	      0.00000000	      0.00000000	      0.00000000	      0.00000000	      0.00000000	      0.00000000	      0.00000000	      0.00000000	      0.00000000	      0.00000000	      0.00000000
      1.63000000	     -0.66952610	      8.36737080	    -89.00030665	      0.28106818	      0.93440558	     -0.23221628	     30.22652121	     -1.12871311	     -4.46325801	     26.85651841	      0.46873467	      1.36455191	      0.00000000	      0.00000000	      8.37513714	      4.14152052	     -0.67077486	      6.12261791	      0.10685984	      2.44452071	      0.00000000	      0.00000000	      1.62105650	     -1.57228654	     -5.50519025	      0.00000000	      0.00000000	      0.00000000	      0.00000000	      0.00000000	      0.00000000	      0.00000000	      0.00000000	      0.00000000	      0.00000000	      0.00000000	      0.00000000	      0.00000000	      0.00000000
      1.64000000	     -0.52820564	      8.36247932	    -88.90001621	      0.28152594	      0.93379074	     -0.22574592	     30.31981502	     -1.06827832	     -4.49106001	     24.47466394	      0.42716347	      1.01933528	      0.00000000	      0.00000000	      7.89335036	      4.33354994	     -0.52933742	      6.08361480	      0.10617911	      2.77752790	      0.00000000	     -0.00000000	      1.51373006	     -1.70586911	     -5.61281744	      0.00000000	     -0.00000000	      0.00000000	      0.00000000	      0.00000000	     -0.00000000	      0.00000000	     -0.00000000	     -0.00000000	      0.00000000	      0.00000000	      0.00000000	     -0.00000000	      0.00000000
      1.65000000	     -0.36873043	      8.29190686	    -88.79231700	      0.28198664	      0.93319812	     -0.21916005	     30.32675136	     -1.03041228	     -4.56488169	     22.13716741	      0.38636646	      0.72536494	      0.00000000	      0.00000000	      7.31378216	      4.54258614	     -0.38949994	      6.01089652	      0.10490994	      3.08009607	      0.00000000	      0.00000000	      1.33008244	     -1.85308970	     -5.72448390	      0.00000000	      0.00000000	      0.00000000	      0.00000000	      0.00000000	      0.00000000	      0.00000000	      0.00000000	      0.00000000	      0.00000000	      0.00000000	      0.00000000	      0.00000000	      0.00000000
